# Blender v3.2.2 OBJ File: ''
# www.blender.org
mtllib overhang.mtl
o Cube
v 1.000000 1.000000 -1.000000
v 1.000000 -1.000000 -1.000000
v 1.000000 1.000000 1.000000
v 1.000000 -1.000000 1.000000
v -1.000000 1.000000 -1.000000
v -1.000000 -1.000000 -1.000000
v -1.000000 1.000000 1.000000
v -1.000000 -1.000000 1.000000
v 1.000000 0.155647 1.000000
v -1.000000 0.277605 1.000000
v 1.000000 -0.259836 1.000000
v -1.000000 -0.260835 1.000000
v 1.000000 -0.174225 0.474630
v -1.000000 0.292238 0.280184
vt 0.625000 0.500000
vt 0.875000 0.500000
vt 0.875000 0.750000
vt 0.625000 0.750000
vt 0.375000 0.750000
vt 0.467520 0.750000
vt 0.467396 1.000000
vt 0.375000 1.000000
vt 0.375000 0.000000
vt 0.467396 0.000000
vt 0.536530 0.089977
vt 0.534701 0.000000
vt 0.625000 0.000000
vt 0.625000 0.250000
vt 0.375000 0.250000
vt 0.125000 0.500000
vt 0.375000 0.500000
vt 0.125000 0.750000
vt 0.519456 0.750000
vt 0.478222 0.684329
vt 0.534701 1.000000
vt 0.625000 1.000000
vn 0.0000 1.0000 0.0000
vn 0.0000 0.0000 1.0000
vn -1.0000 0.0000 0.0000
vn 0.0000 -1.0000 0.0000
vn 1.0000 0.0000 0.0000
vn 0.0000 0.0000 -1.0000
vn 0.0811 0.8869 0.4549
vn -0.1527 -0.9580 0.2425
usemtl Material
s off
f 1/1/1 5/2/1 7/3/1 3/4/1
f 4/5/2 11/6/2 12/7/2 8/8/2
f 8/9/3 12/10/3 14/11/3 10/12/3 7/13/3 5/14/3 6/15/3
f 6/16/4 2/17/4 4/5/4 8/18/4
f 2/17/5 1/1/5 3/4/5 9/19/5 13/20/5 11/6/5 4/5/5
f 6/15/6 5/14/6 1/1/6 2/17/6
f 10/21/2 9/19/2 3/4/2 7/22/2
f 12/10/7 11/6/7 13/20/7 14/11/7
f 10/12/8 14/11/8 13/20/8 9/19/8
