# Blender 3.2.2
# www.blender.org
mtllib thing.mtl
o Cube
v 0.626614 0.609318 -0.738380
v 0.600671 1.000000 -0.123470
v 1.000000 0.609318 -0.347699
v 0.609318 -1.000000 -1.271355
v 0.609318 -0.609318 -1.437808
v 1.000000 -0.609318 -1.047126
v 1.000000 0.609318 0.870938
v 0.600671 1.000000 1.095167
v 0.609318 0.609318 1.261620
v 1.000000 -0.609318 0.171511
v 0.609318 -0.609318 0.562192
v 0.609318 -1.000000 -0.052718
v -0.592023 0.609318 -0.738380
v -1.000000 0.609318 -0.609318
v -0.617966 1.000000 -0.123470
v -1.000000 -0.609318 -0.609318
v -0.609318 -0.609318 -1.000000
v -0.609318 -1.000000 -0.609318
v -1.000000 0.609318 0.609318
v -0.609318 0.609318 1.261620
v -0.617966 1.000000 1.095167
v -0.609318 -1.000000 0.609318
v -0.609318 -0.609318 0.562192
v -1.000000 -0.609318 0.609318
vn -0.0000 -1.0000 -0.0000
vn -1.0000 -0.0000 -0.0000
vn -0.0000 -0.4978 0.8673
vn -0.0000 1.0000 -0.0000
vn 1.0000 -0.0000 -0.0000
vn 0.4778 0.7505 -0.4566
vn 0.6770 -0.2885 -0.6770
vn 0.6741 0.3021 0.6741
vn 0.4726 -0.7438 0.4726
vn -0.1688 0.8287 -0.5336
vn -0.5774 -0.5774 -0.5774
vn -0.8413 0.1960 0.5038
vn 0.1189 0.1189 0.9858
vn -0.7071 -0.7071 -0.0000
vn -0.3449 -0.5449 -0.7643
vn 0.6647 0.3683 -0.6500
vn -0.5972 -0.2213 0.7710
vn 0.6552 -0.3760 0.6552
vn -0.5431 0.0934 -0.8345
vn -0.0000 0.3920 0.9200
vn 0.6993 0.7148 -0.0000
vn 0.2146 -0.5741 0.7901
vn -0.7150 0.6991 -0.0000
vn -0.0000 0.8440 -0.5363
vn 0.7071 -0.7071 -0.0000
vn -0.1647 0.3638 -0.9168
vt 0.576165 0.451165
vt 0.673835 0.548835
vt 0.625000 0.451165
vt 0.576165 0.500000
vt 0.576165 0.548835
vt 0.326165 0.548835
vt 0.326165 0.500000
vt 0.423835 0.451165
vt 0.375000 0.548835
vt 0.423835 0.548835
vt 0.576165 0.750000
vt 0.576165 0.701165
vt 0.625000 0.798835
vt 0.673835 0.701165
vt 0.576165 0.798835
vt 0.375000 0.701165
vt 0.423835 0.701165
vt 0.423835 0.798835
vt 0.326165 0.750000
vt 0.326165 0.701165
vt 0.576165 0.250000
vt 0.576165 0.298835
vt 0.576165 0.201165
vt 0.826165 0.548835
vt 0.625000 0.201165
vt 0.625000 0.298835
vt 0.125000 0.548835
vt 0.423835 0.201165
vt 0.173835 0.500000
vt 0.423835 0.298835
vt 0.173835 0.548835
vt 0.576165 0.048835
vt 0.576165 0.000000
vt 0.576165 0.951165
vt 0.826165 0.701165
vt 0.625000 0.951165
vt 0.625000 0.048835
vt 0.173835 0.701165
vt 0.423835 0.951165
vt 0.423835 0.000000
vt 0.173835 0.750000
vt 0.125000 0.701165
vt 0.423835 0.048835
s 0
usemtl Material
f 18/31/1 4/6/1 12/20/1 22/38/1
f 24/43/2 19/32/2 14/23/2 16/28/2
f 11/18/3 9/15/3 20/34/3 23/39/3
f 2/2/4 15/24/4 21/35/4 8/14/4
f 6/10/5 3/5/5 7/12/5 10/17/5
f 1/1/6 2/3/6 3/4/6
f 4/6/7 5/7/7 6/9/7
f 7/11/8 8/13/8 9/15/8
f 10/16/9 11/19/9 12/20/9
f 13/21/10 14/23/10 15/25/10
f 16/27/11 17/29/11 18/31/11
f 19/32/12 20/33/12 21/37/12
f 22/38/13 23/41/13 24/42/13
f 18/31/14 22/38/14 24/42/14 16/27/14
f 4/6/15 18/31/15 17/29/15 5/7/15
f 3/5/16 6/10/16 5/8/16 1/1/16
f 23/40/17 20/33/17 19/32/17 24/43/17
f 9/15/18 11/18/18 10/17/18 7/12/18
f 13/22/19 17/30/19 16/28/19 14/23/19
f 8/13/20 21/36/20 20/34/20 9/15/20
f 2/2/21 8/14/21 7/12/21 3/5/21
f 22/38/22 12/20/22 11/19/22 23/41/22
f 21/37/23 15/25/23 14/23/23 19/32/23
f 15/26/24 2/3/24 1/1/24 13/22/24
f 12/20/25 4/6/25 6/10/25 10/17/25
f 17/30/26 13/22/26 1/1/26 5/8/26
